<svg version="1.1" xmlns="http://www.w3.org/2000/svg" style="display: block;" viewBox="0 0 2048 2048" width="2048" height="2048" preserveAspectRatio="none"><metadata></metadata>
<path transform="translate(0,0)" fill="rgb(215,155,49)" d="M 996.403 544.444 C 1018.72 543.202 1044.72 544.099 1067.22 544.411 C 1073.82 544.21 1083.4 547.094 1089.63 546.885 C 1105.87 546.341 1117.36 550.797 1132.29 553.704 C 1318.15 589.891 1466.52 746.035 1500.3 931.241 C 1518.52 1030.2 1503.56 1132.4 1457.74 1221.98 C 1399.59 1336.44 1298.45 1423.18 1176.47 1463.22 C 1111.5 1484.22 1030.75 1490.7 963.434 1478.26 C 957.859 1477.23 925.253 1472.08 922.759 1470.81 C 917.23 1467.36 904.631 1466.4 897.826 1463.86 C 878.215 1456.56 828.14 1439.28 812.803 1428.15 C 794.709 1427.08 761.664 1439.64 743.198 1445.47 C 695.247 1461.08 647.075 1475.99 598.696 1490.22 C 588.783 1493.1 556.075 1506.08 548.527 1502.8 C 546.175 1501.76 543.838 1500.69 541.515 1499.59 C 539.863 1496.03 537.846 1492.22 536.072 1488.69 C 543.3 1467.03 553.209 1443.03 561.337 1421.28 L 602.134 1310.58 C 604.196 1305.05 624.294 1255.79 622.769 1252.25 C 615.488 1235.36 605.122 1216.57 597.784 1199.8 C 485.696 943.723 634.08 639.551 900.295 561.72 C 934.578 551.696 962.016 549.017 996.403 544.444 z M 935.032 1439.57 L 936.178 1439.71 C 946.693 1441.09 960.838 1444.52 971.961 1446.38 C 1062.52 1461.45 1160.68 1444.57 1241.09 1400.43 C 1349.42 1341.33 1429.02 1240.67 1461.58 1121.64 C 1505.11 968.479 1448.34 795.481 1330.33 691.539 C 1321.62 683.875 1313.73 675.022 1304.46 667.965 C 1261.11 635.29 1212.36 608.958 1160.11 593.956 C 1108.93 579.26 1056.49 574.453 1003.58 576.46 C 979.663 580.335 954.53 582.124 930.856 587.824 C 828.627 612.323 738.719 672.997 677.75 758.635 C 616.827 843.06 585.468 945.338 594.248 1049.49 C 595.03 1058.77 595.715 1070.43 597.201 1079.46 C 603.787 1121.35 616.019 1162.17 633.563 1200.78 C 640.452 1216.12 650.993 1230.42 656.39 1245.78 C 659.956 1255.92 651.27 1270.67 648.237 1279.38 C 636.297 1314.44 623.504 1349.21 609.872 1383.65 C 602.987 1401.29 595.922 1418.96 590.341 1437.08 C 588.058 1444.49 581.361 1451.75 586.783 1458.73 C 593.09 1458.62 635.611 1444.89 644.788 1442.03 L 771.941 1402.24 C 779.349 1399.89 798.111 1392.72 806.123 1392.1 C 808.798 1391.89 817.892 1394.91 820.741 1396.3 C 851.582 1411.39 882.183 1425.41 915.485 1434.29 C 919.034 1435.24 932.149 1439.41 935.032 1439.57 z"></path>
<path transform="translate(0,0)" fill="rgb(215,155,49)" d="M 853.431 681.144 C 854.165 681.079 854.898 681.014 855.632 680.949 C 880.297 679.753 901.886 688.107 917.713 707.271 C 930.671 722.962 939.797 739.687 950.507 756.816 C 961.715 774.744 974.756 791.506 982.723 811.035 C 985.434 817.719 985.343 827.903 985.614 834.833 C 987.034 864.69 966.383 887.136 948.814 908.618 C 942.869 915.887 932.463 926.636 936.78 936.283 C 943.162 950.541 952.656 961.588 962.061 973.72 C 1004 1027.82 1058.19 1074.44 1119.52 1105.05 C 1125.04 1107.79 1125.96 1107.82 1132.26 1107.35 C 1133.55 1105.62 1134.92 1103.94 1136.46 1102.44 C 1143.27 1095.83 1150.87 1089.73 1157.95 1083.37 C 1177.74 1065.6 1193.7 1051.71 1221.7 1051.62 C 1226.77 1051.61 1231.87 1051.86 1236.73 1053.4 C 1260.95 1061.1 1338.52 1103.01 1355.79 1120.5 C 1369.71 1134.6 1376.43 1154.76 1376.21 1174.52 C 1375.9 1202.16 1358.96 1229.47 1340.08 1248.5 C 1333.17 1255.46 1325.34 1261.41 1318.47 1268.24 C 1307.83 1280.05 1284.2 1295.38 1268.8 1301.02 C 1211.06 1322.18 1131.67 1283.31 1079.54 1258.24 C 944.602 1194.23 838.302 1088.81 773.205 954.396 C 744.388 894.895 707.362 837.333 742.303 771.189 C 759.881 737.914 795.623 706.536 827.872 687.496 C 833.189 684.357 846.207 683.701 853.431 681.144 z M 1315.53 1225.34 C 1343.44 1202.02 1357.4 1156.5 1319.99 1134.2 C 1293.58 1118.46 1264.18 1104.53 1237.33 1089.23 C 1220.88 1079.85 1217.29 1086.7 1202.31 1088.34 C 1196.13 1094.01 1186.55 1100.12 1181.45 1105.63 C 1169.24 1118.85 1151.78 1131.52 1139.83 1144.11 C 1119.72 1144.87 1114.33 1137.78 1096.49 1129.48 C 1058.8 1111.94 1021.02 1083.55 990.536 1054.95 C 955.183 1021.79 913.178 971.505 896.396 925.746 C 909.968 893.748 964.884 858.606 950.788 820.464 C 946.803 809.683 899.324 736.505 890.341 726.422 C 886.662 722.291 883.088 719.605 877.884 717.535 C 870.04 714.414 860.127 713.808 851.901 715.635 C 834.146 716.834 799.356 748.456 787.064 762.896 C 745.225 812.045 761.711 851.224 783.609 900.135 C 827.86 998.969 878.92 1074.07 960.907 1143.41 C 976.803 1156.67 993.377 1169.1 1010.56 1180.65 C 1070.43 1220.13 1164.73 1271.92 1238.35 1274.39 C 1258.46 1275.06 1279.53 1259.48 1293.22 1246.47 C 1295.17 1244.61 1315.18 1225.52 1315.53 1225.34 z"></path>
</svg>