<svg version="1.1" xmlns="http://www.w3.org/2000/svg" style="display: block;" viewBox="0 0 2048 2048" width="2048" height="2048" preserveAspectRatio="none"><metadata></metadata>
<path transform="translate(0,0)" fill="rgb(203,141,22)" d="M 1073.05 432.532 C 1103.57 430.593 1149.34 431.969 1181.08 431.997 L 1378.43 432.084 L 1538.98 432.107 C 1576.35 432.118 1615.6 430.449 1652.35 436.175 C 1658.47 437.242 1664.35 440.083 1670.22 442.174 C 1730.14 463.496 1779.52 524.905 1778.41 589.784 C 1778.34 594.076 1776.61 601.537 1775.81 606.162 C 1753.6 634.631 1736.68 628.048 1703.49 628.087 L 1587.96 628.088 C 1578.11 628.067 1530.99 626.93 1526.59 629.398 C 1522.11 634.412 1523.82 665.713 1523.84 674.539 L 1523.92 746.024 L 1523.88 980.907 L 1523.95 1036.96 C 1523.94 1048.45 1524.35 1063.75 1522.75 1074.9 L 1522.5 1076.56 L 1666.76 1076.14 L 1704.1 1075.98 C 1711.28 1075.89 1723.47 1075.27 1730.23 1076.04 C 1737.85 1076.96 1745.24 1079.28 1752.02 1082.88 C 1783.84 1099.54 1777.35 1122.2 1772.41 1150.58 C 1754.92 1251.67 1695.83 1343.77 1607.56 1397.27 C 1600.23 1401.72 1576.06 1407.37 1578.61 1416.82 C 1584.81 1422.31 1595.52 1427.48 1602.39 1431.62 C 1656.22 1464.08 1721.1 1469.16 1779.63 1446.46 C 1797.62 1439.48 1810.12 1431.6 1824.07 1449.4 C 1824.17 1453.2 1823.93 1457.09 1823.77 1460.9 C 1809.44 1480.56 1778.1 1485.82 1755.51 1491.17 C 1675.24 1510.18 1592.42 1475.73 1530.5 1425.65 C 1488.23 1390.77 1451.21 1354.04 1392.41 1352.11 C 1365.67 1351.23 1319.78 1368.51 1298.29 1387.34 C 1290.26 1394.38 1269.93 1400.25 1268.97 1406.77 C 1271.55 1413.26 1286.64 1419.91 1293.09 1423.69 C 1329.26 1444.89 1370.19 1458.55 1412.43 1457.4 C 1421.9 1457.15 1431.54 1456.52 1440.94 1455.36 C 1451.53 1453.89 1452.35 1451.64 1463.71 1452.19 L 1465.41 1452.28 C 1477.92 1460.54 1476.52 1461.14 1475.97 1476.17 C 1471.12 1482.91 1471.01 1483.14 1463.86 1487.84 C 1454.22 1488.26 1446.56 1491.11 1436.87 1491.79 C 1419.77 1492.87 1402.13 1493.09 1385.04 1491.6 C 1377.66 1490.96 1369.09 1487.65 1360.91 1487.87 C 1359.74 1487.9 1346.74 1483.54 1344.13 1482.82 C 1303.88 1471.82 1268.35 1450.81 1234.61 1426.83 C 1186.59 1389.96 1146.82 1349.21 1080.27 1352.1 C 1053.89 1353.25 1023.9 1365.65 1001.21 1378.71 C 998.791 1380.1 989.003 1385.24 987.908 1387.05 C 983.021 1395.11 972.912 1393.07 967.682 1400.41 C 966.903 1401.5 966.77 1402.97 967.207 1404.29 C 968.753 1408.99 978.826 1413.6 983.569 1416.7 C 1021.54 1441.5 1064.83 1459.3 1110.79 1459.26 C 1122.77 1459.25 1137.25 1456.55 1149.35 1455.1 C 1154.02 1454.88 1161.53 1452.3 1165.88 1452.84 C 1181.66 1454.79 1184.98 1469.21 1178.09 1480.95 L 1174.22 1487.68 C 1165.89 1488.37 1158.59 1490.66 1150.55 1491.38 C 1130.2 1493.2 1102.24 1493.85 1082.12 1491.48 C 1033.05 1485.71 984.029 1460.76 944.31 1432.05 C 933.156 1423.99 920.827 1411.28 908.923 1402.12 C 870.278 1372.4 830.022 1351.44 780.37 1349.12 C 773.155 1348.79 765.719 1350.59 758.834 1351.18 C 720.357 1354.45 683.393 1370.84 649.851 1389.14 C 641.13 1393.89 629.137 1399.97 621.866 1406.71 C 613.787 1409.41 589.685 1429.13 579.639 1436.03 C 529.729 1470.26 468.317 1492.89 407.912 1496.01 C 379.165 1497.5 296.276 1484.73 276.842 1465.68 C 275.741 1461.66 273.519 1457.48 271.709 1453.66 L 277.502 1442.07 C 281.493 1439.93 285.455 1437.73 289.386 1435.47 C 305.782 1444.08 334.588 1453.24 352.611 1456.42 C 418.09 1467.98 485.969 1455.36 541.881 1418.78 C 548.755 1414.28 563.607 1409.54 564.945 1401.56 C 563.268 1398.83 498.291 1359.92 488.457 1352.73 C 457.101 1329.82 429.123 1304.71 401.912 1277.1 C 340.009 1214.4 292.534 1138.94 262.803 1056 C 258.862 1044.89 255.052 1034.52 251.703 1023.61 C 233.281 963.607 222.116 899.059 224.629 835.82 C 225.041 825.444 227.547 814.615 227.844 803.769 L 227.878 802.303 C 233.248 796.315 244.849 789.728 252.795 793.615 C 280.327 807.081 306.392 824.025 332.785 839.63 L 521.055 951.682 C 534.395 959.638 549.241 969.502 562.886 976.96 C 565.103 978.172 566.822 977.457 568.69 976.599 C 572.311 971.207 567.887 965.081 567.91 959.159 C 567.96 946.606 566.933 930.779 570.606 918.913 C 575.229 903.978 617.212 862.552 630.314 849.763 C 650.77 829.796 677.481 815.035 706.264 812.29 C 719.539 811.024 733.432 811.811 746.774 811.828 C 765.971 811.852 785.186 811.374 804.377 811.659 C 816.936 804.403 824.345 793.249 834.702 783.054 C 874.895 743.452 905.852 695.284 960.185 673.334 C 994.205 659.59 1017.15 659.251 1052.66 659.342 L 1116.1 659.511 L 1179.42 659.387 C 1198.65 659.358 1215.17 657.199 1233.2 664.94 C 1247.24 688.509 1260.82 717.049 1273.78 741.652 C 1285.53 763.96 1299.28 788.614 1309.85 811.252 C 1335.9 813.65 1359.35 820.746 1380.83 836.705 C 1400.63 851.418 1427.21 888.445 1427.15 914.664 C 1427.08 943.894 1434.57 989.852 1415.93 1014.44 C 1395.88 1038.72 1364.12 1035.89 1336.24 1035.68 C 1334.77 1035.67 1330.63 1037.06 1329.67 1038.81 C 1329.27 1048.27 1314.27 1068.87 1312.83 1074.25 C 1314.42 1077.46 1313.25 1076.29 1316.47 1077.87 C 1329.97 1075.43 1345.42 1076.55 1359.41 1076.49 L 1452.79 1076.41 C 1461.64 1076.47 1469.84 1077.21 1478.62 1077.88 C 1485.68 1078.42 1488.39 1072.37 1488.31 1066.33 C 1487.89 1036.25 1487.93 1006.18 1487.95 976.097 L 1488.07 767.349 L 1488.06 674.367 C 1488.06 660.766 1488.56 644.572 1487.17 630.989 C 1487.19 631.187 1486.56 628.688 1486.31 628.669 C 1472.45 627.611 1444.49 628.02 1431.78 628.031 L 1119.4 627.976 L 1018.39 628.061 C 1000.24 628.101 981.888 628.361 963.886 627.862 C 945.161 627.343 931.244 615.227 928.811 596.589 C 924.956 567.061 936.816 530.577 953.3 506.521 C 982.632 463.714 1022.65 441.431 1073.05 432.532 z M 1554.46 1384.43 C 1563.1 1382.89 1573.32 1376.41 1581.24 1372.34 C 1660.65 1331.52 1713.21 1251.99 1734.65 1166.87 C 1738.05 1153.38 1738.65 1136.43 1744.11 1124.48 C 1740.26 1118.69 1738.99 1117.24 1734.13 1112.3 C 1619.82 1111.7 1505.51 1112.14 1391.22 1113.6 L 1074.69 1113.21 L 904.12 1113.4 C 868.235 1113.62 819.628 1114.77 784.804 1111.71 C 760.719 1109.58 709.125 1092.21 687.553 1083.2 C 631.981 1060 581.605 1028.81 530.218 998.27 L 347.962 889.128 C 329.405 878.008 310.919 866.768 292.506 855.411 C 283.233 849.748 270.863 840.646 260.551 838.468 C 256.612 846.978 260.833 851.139 260.17 859.451 C 258.412 881.494 261.009 899.583 263.933 921.041 C 272.175 981.521 289.137 1039.24 315.631 1094.32 C 361.321 1188.6 430.51 1269.53 516.538 1329.33 C 539.544 1345.31 563.138 1360.56 588.302 1372.94 C 593.309 1375.4 601.114 1377.4 606.306 1374.27 C 659.458 1342.31 720.377 1312.35 784.08 1315.51 C 793.227 1315.97 803.724 1315.17 812.923 1316.69 C 843.34 1324.75 872.861 1336.07 899.009 1353.84 C 909.963 1361.28 920.976 1369.14 931.97 1376.48 C 933.535 1377.51 939.776 1376.48 941.766 1375.39 C 953.644 1368.64 964.918 1360.3 976.614 1353.13 C 1030.96 1319.82 1087.65 1305.03 1148.59 1328.5 C 1182.62 1341.6 1206.24 1359.84 1235.44 1381.06 C 1237.56 1382.6 1240.6 1380.54 1242.7 1379.91 C 1267.6 1366.39 1291.85 1346.52 1317.73 1334.94 C 1357.87 1316.98 1404.45 1311.1 1446.28 1326.89 C 1482.86 1340.22 1510.36 1362.2 1538.86 1387.52 C 1546.57 1388.11 1548.22 1389.01 1554.46 1384.43 z M 1432.75 593.409 L 1570 593.139 C 1587.03 593.164 1732.24 595.146 1742.27 590.887 C 1746.45 583.508 1743.01 574.331 1741.08 566.618 C 1727.9 514.054 1677.72 470.172 1622.97 467.681 C 1610.26 467.103 1597.67 467.173 1585.2 467.213 L 1514.98 467.492 L 1273.38 467.501 L 1152.26 467.673 C 1130.46 467.609 1083.52 465.993 1064.18 470.345 C 1039.87 475.633 1017.56 487.715 999.851 505.185 C 979.707 525.212 963.566 556.591 962.05 585.303 C 961.801 590.02 966.425 592.064 969.897 593.802 L 971.596 594.671 L 972.724 595.232 C 983.71 591.515 1047.14 593.668 1063.12 593.568 L 1432.75 593.409 z M 611.312 1003.73 C 626.493 1000.86 645.751 1003.49 661.493 1002.35 C 674.704 1001.39 674.921 1005.63 683.457 993.867 C 684.676 949.6 737.356 912.872 779.56 912.189 C 807.582 911.889 834.569 922.761 854.556 942.403 C 868.262 955.997 880.376 975.653 880.576 995.437 C 881.826 996.979 886.417 1002.77 887.909 1002.85 C 899.352 1003.48 916.546 1002.53 927.574 1002.36 L 1062 1001.19 C 1079.21 1001.1 1109 999.45 1124.8 1001.46 C 1125.82 1000.42 1129.97 996.104 1130.14 995.041 C 1135.68 960.813 1161.81 931.229 1193.66 918.538 L 1194.8 918.076 C 1205.58 919.044 1217.12 917.907 1228 917.911 C 1240.64 917.915 1253.51 918.843 1266.13 918.302 L 1268.66 919.588 C 1297.74 934.052 1326.63 960.363 1329.05 994.635 C 1330.18 996.418 1333.02 1000.79 1334.81 1001.39 C 1346.03 1005.11 1368.48 1001.1 1379.22 999.282 C 1403.08 980.489 1393.42 947.886 1393.54 920.9 C 1393.63 900.961 1378.45 876.148 1362.85 864.406 C 1353.67 857.492 1339.92 849.534 1328.34 847.864 C 1293.48 844.023 1255.93 844.736 1220.79 844.825 L 1046.62 845.685 L 854.312 845.502 C 811.826 845.109 768.466 843.768 725.928 844.886 C 721.407 845.005 702.911 847.31 697.745 848.168 C 669.551 852.853 647.022 879.342 629.044 899.302 C 620.487 908.802 611.554 917.885 603.961 927.597 C 604.128 941.309 604.101 955.023 603.879 968.734 C 603.692 977.315 602.97 988.248 603.677 996.886 C 603.894 999.537 608.819 1002.14 611.312 1003.73 z M 1224.89 945.211 C 1221.57 946.275 1218.48 947.198 1215.07 947.967 C 1156.17 961.264 1144.51 1038.41 1194.11 1071.2 C 1205.18 1078.51 1221.63 1076.17 1234.65 1076.1 C 1254.76 1076.11 1262.41 1076.75 1277.85 1061.02 C 1321.25 1016.81 1287.41 941.502 1224.89 945.211 z M 1162.66 692.057 C 1159.43 694.008 1158.11 694.422 1156.25 697.738 C 1155.57 702.901 1155.62 732.434 1155.88 739.462 C 1156.58 758.736 1154.28 791.577 1157.1 809.567 C 1159.73 812.785 1184.19 811.626 1189.93 811.61 C 1207.12 811.626 1224.31 811.512 1241.5 811.268 C 1245.68 811.193 1262.63 811.371 1265.18 811.029 C 1268.5 808.118 1269.15 808.493 1270.36 804.93 C 1256.61 782.621 1219.14 703.506 1205.19 691.863 C 1193.67 694.06 1174.16 694.899 1162.66 692.057 z M 882.528 1035.92 C 880.723 1039.24 865.395 1074.61 865.189 1076.39 C 876.158 1076.87 888.557 1076.17 899.972 1076.38 C 957.05 1077.16 1014.13 1077.38 1071.22 1077.06 C 1087.57 1077.08 1111.49 1075.65 1126.78 1076.44 C 1132.92 1077.11 1140.91 1078.93 1145.85 1075.46 C 1146.56 1073.31 1130.23 1039.84 1127.63 1035.98 C 1113.96 1035.03 1095.01 1035.85 1080.68 1035.87 L 991.467 1035.9 L 916.774 1035.9 C 908.7 1035.9 889.409 1035.29 882.528 1035.92 z M 779.04 945.345 C 753.36 951.135 740.553 954.828 725.017 978.209 C 708.225 1003.48 712.52 1044.43 737.731 1062.48 C 741.732 1065.35 779.083 1075.2 784.922 1075.63 C 806.432 1076.05 812.329 1077.52 828.724 1062.11 C 857.576 1034.99 855.911 992.464 828.909 965.18 C 816.113 952.201 798.565 945.02 780.341 945.306 C 779.907 945.319 779.473 945.332 779.04 945.345 z M 1113.99 692.321 C 1105.44 694.751 1092.61 693.203 1083.54 692.963 C 1031.3 691.578 976.074 690.728 934.561 728.062 C 912.629 747.785 891.458 771.265 871.621 793.172 C 865.92 799.468 858.504 800.051 858.351 809.108 L 859.647 811.387 C 862.263 812.063 862.167 812.225 864.75 811.627 L 1023.77 811.721 C 1038.55 811.708 1107.87 813.067 1117.84 809.162 C 1123.26 798.749 1118.67 736.638 1119.96 721.438 C 1120.63 713.5 1123.13 694.998 1113.99 692.321 z"></path>
<path transform="translate(0,0)" fill="rgb(203,141,22)" fill-opacity="0.980392" d="M 1194.8 918.076 C 1195.79 917.549 1212.01 912.88 1213 912.802 C 1224.67 911.882 1239.04 911.207 1250.43 914.358 C 1257.57 916.266 1259.59 914.56 1266.13 918.302 C 1253.51 918.843 1240.64 917.915 1228 917.911 C 1217.12 917.907 1205.58 919.044 1194.8 918.076 z"></path>
<path transform="translate(0,0)" fill="rgb(203,141,22)" d="M 799.275 1451.54 C 854.466 1448.71 896.414 1463.76 939.441 1498.09 C 984.382 1533.94 1022.68 1560.73 1080.02 1574.54 C 1146.4 1590.54 1218.04 1582.73 1279.88 1553.16 C 1299.76 1543.66 1306.54 1530.86 1328.94 1536.88 C 1329.45 1537.47 1329.95 1538.05 1330.45 1538.64 C 1337.09 1546.51 1336.83 1547.31 1335.92 1557.38 C 1335.24 1558.37 1334.55 1559.36 1333.84 1560.33 C 1313.95 1587.63 1227.11 1611.52 1193.58 1615.39 C 1117.8 1624.14 1043.28 1610.23 977.684 1569.76 C 950.382 1552.92 930.645 1535.7 905.654 1516.99 C 844.401 1474.51 790.087 1474.4 725.799 1511.65 C 719.669 1515.8 711.827 1519.72 706.222 1524.41 C 643.428 1576.9 559.611 1606.54 478.906 1615.66 C 453.201 1618.57 419.766 1614.78 393.528 1615.72 C 385.905 1615.99 376.534 1612.27 367.599 1611.94 L 366.073 1611.89 C 362.127 1608.61 359.426 1605.73 355.881 1602.07 L 355.756 1588.02 L 361.721 1580.41 C 370.137 1579.04 376.501 1578.97 385.047 1579.52 C 409.945 1581.12 434.024 1581.28 458.965 1580.52 C 525.317 1578.46 589.979 1559.1 646.537 1524.34 C 683.665 1501.5 716.111 1472.04 758.788 1459.23 C 770.19 1455.81 787.454 1451.44 799.275 1451.54 z"></path>
</svg>